<svg xmlns="http://www.w3.org/2000/svg" width="55" height="50" viewBox="0 0 55 50">
  <g id="Group_103" data-name="Group 103" transform="translate(-1358 -150)">
    <path id="Rectangle_23" data-name="Rectangle 23" d="M5,0H55a0,0,0,0,1,0,0V50a0,0,0,0,1,0,0H0a0,0,0,0,1,0,0V5A5,5,0,0,1,5,0Z" transform="translate(1358 150)" fill="#f4f4f4"/>
    <g id="Group_28" data-name="Group 28" transform="translate(1361 -800.362)">
      <path id="Path_6" data-name="Path 6" d="M21.25,966.362a7.25,7.25,0,1,0,4.562,12.874l4.906,4.906a.752.752,0,0,0,1.062,0,.743.743,0,0,0,0-1.055l-4.906-4.906a7.247,7.247,0,0,0-5.625-11.82Zm0,1.5a5.75,5.75,0,1,1-5.75,5.75A5.738,5.738,0,0,1,21.25,967.862Z" transform="translate(0 0)" fill="#b7bed1"/>
    </g>
  </g>
</svg>
