<svg xmlns="http://www.w3.org/2000/svg" width="56" height="50" viewBox="0 0 56 50">
  <g id="Group_104" data-name="Group 104" transform="translate(176 -2472)">
    <path id="Rectangle_19" data-name="Rectangle 19" d="M0,0H51a5,5,0,0,1,5,5V50a0,0,0,0,1,0,0H0a0,0,0,0,1,0,0V0A0,0,0,0,1,0,0Z" transform="translate(-176 2472)" fill="#f4f4f4"/>
    <g id="Group_29" data-name="Group 29" transform="translate(-2095.36 -460)">
      <path id="Path_7" data-name="Path 7" d="M29.995,12.673A4.173,4.173,0,1,1,25.822,8.5,4.173,4.173,0,0,1,29.995,12.673Zm-1.2,0A2.974,2.974,0,1,1,25.822,9.7,2.973,2.973,0,0,1,28.8,12.673Z" transform="translate(1921.359 2944.717)" fill="#b7bed1" fill-rule="evenodd"/>
      <path id="Path_8" data-name="Path 8" d="M9.82,0A11.089,11.089,0,0,0,.346,5.217a2.163,2.163,0,0,0,0,2.347A11.089,11.089,0,0,0,9.82,12.781a11.089,11.089,0,0,0,9.474-5.217,2.163,2.163,0,0,0,0-2.347A11.089,11.089,0,0,0,9.82,0ZM1.445,5.919A9.784,9.784,0,0,1,9.82,1.3a9.784,9.784,0,0,1,8.375,4.615.859.859,0,0,1,0,.942A9.784,9.784,0,0,1,9.82,11.476,9.784,9.784,0,0,1,1.445,6.862.859.859,0,0,1,1.445,5.919Z" transform="translate(1937.36 2951)" fill="#b7bed1" fill-rule="evenodd"/>
    </g>
  </g>
</svg>
